<svg xmlns="http://www.w3.org/2000/svg" viewBox="173.48 196.16 239.96 434.12">
  <title>J-ONE watermark</title>
  <g transform="translate(173.48,196.16) scale(0.09998333333333334)">
    <g transform="translate(0.000000,4342.000000) scale(0.100000,-0.100000)" fill="#1A1A1A" fill-opacity="0.07" stroke="none">
      <path d="M11874 42975 c-79 -40 -1738 -1282 -3839 -2874 -3816 -2892 -5873 -4400 -7438 -5449 l-187 -126 2 -4754 3 -4755 908 -513 909 -512 216 158 c119 87 1592 1164 3272 2394 l3055 2235 5 -8137 5 -8137 28 -47 c196 -334 1221 -1136 2779 -2175 427 -284 376 -268 554 -178 196 100 473 291 1074 744 223 168 533 393 690 500 548 374 753 533 981 760 154 155 262 294 305 396 16 37 16 962 10 14155 -5 11060 -9 14117 -19 14123 -7 4 -61 35 -122 68 -345 190 -856 561 -2050 1488 -466 362 -718 550 -804 601 -139 83 -226 92 -337 35z"/>
<path d="M17155 39978 c-3 -13 -158 -744 -345 -1626 l-340 -1602 0 -6214 0 -6214 98 -38 c122 -48 471 -221 707 -349 405 -220 814 -459 1712 -1001 1026 -619 1386 -835 1653 -992 507 -297 904 -513 1151 -627 l141 -66 397 130 c218 71 591 193 829 271 l432 141 2 6819 c2 3751 3 7037 3 7302 l0 482 -25 13 c-14 7 -110 51 -215 99 -505 229 -1120 582 -2835 1629 -1587 969 -2187 1317 -2765 1605 -256 127 -554 260 -586 260 -5 0 -11 -10 -14 -22z"/>
<path d="M17009 22977 c-85 -89 -241 -256 -347 -369 l-193 -207 -6 -5276 -6 -5275 -116 -79 c-593 -400 -3530 -2104 -4123 -2392 l-108 -52 -62 23 c-119 43 -519 252 -983 513 -852 479 -2242 1292 -3025 1770 -162 99 -307 187 -322 196 l-28 16 -2 4034 -3 4033 -419 149 c-230 82 -426 149 -436 149 -65 0 -596 -258 -1052 -511 -521 -290 -918 -522 -2298 -1344 -1669 -994 -2239 -1320 -2832 -1621 l-248 -125 0 -4713 0 -4713 42 -42 c388 -387 4147 -2597 10381 -6103 l1137 -640 65 22 c73 24 424 196 658 321 971 522 3051 1719 4962 2859 354 211 510 301 1540 880 2834 1594 4038 2327 4338 2638 l67 70 0 4059 c0 2233 3 4964 7 6070 l6 2011 -58 61 c-146 153 -630 481 -1465 991 -1095 670 -2828 1663 -4055 2324 -292 157 -801 418 -841 430 -19 6 -46 -19 -175 -157z"/>
    </g>
  </g>
</svg>
